<?xml version="1.0" standalone="no"?>
<!DOCTYPE svg PUBLIC "-//W3C//DTD SVG 20010904//EN"
 "http://www.w3.org/TR/2001/REC-SVG-20010904/DTD/svg10.dtd">
<svg version="1.0" xmlns="http://www.w3.org/2000/svg"
 width="701.000000pt" height="701.000000pt" viewBox="0 0 701.000000 701.000000"
 preserveAspectRatio="xMidYMid meet">
<metadata>
Created by potrace 1.15, written by Peter Selinger 2001-2017
</metadata>
<g transform="translate(0.000000,701.000000) scale(0.100000,-0.100000)"
fill="#0058cc" stroke="none">
<path d="M3310 6003 c-745 -71 -1382 -423 -1812 -1000 -258 -347 -421 -756
-480 -1203 -16 -122 -16 -468 0 -590 58 -442 227 -864 482 -1205 201 -268 444
-486 730 -656 275 -162 599 -276 925 -325 148 -22 523 -26 660 -6 655 93 1208
395 1617 882 301 358 507 841 563 1316 75 640 -102 1284 -496 1811 -141 188
-531 554 -529 496 1 -5 7 -126 14 -270 l14 -261 57 -68 c290 -341 450 -833
414 -1271 -91 -1125 -1178 -1869 -2304 -1578 -353 92 -702 304 -942 575 -394
444 -552 1020 -433 1572 100 461 388 869 792 1120 168 105 390 196 574 235
l81 18 171 202 c95 112 172 205 172 208 0 5 -211 4 -270 -2z"/>
<path d="M4194 5748 c-17 -18 -73 -87 -124 -153 -51 -66 -191 -239 -310 -385
-683 -835 -745 -920 -800 -1095 -31 -99 -39 -276 -16 -379 57 -252 255 -445
535 -517 100 -26 270 -28 361 -4 246 64 432 263 502 540 21 84 23 108 21 345
-2 140 -8 406 -14 590 -6 184 -14 496 -18 692 -7 326 -9 359 -26 378 -28 31
-75 26 -111 -12z"/>
</g>
</svg>
