<svg xmlns="http://www.w3.org/2000/svg" viewBox="0 0 25.4 25.4"><path d="M21.7 3.7L20.6 11.6l-7.9 1.1 1.1-7.9z" style="fill:#a295ae;opacity:0.8"/><path d="M3.7 21.7l1.1-7.9 7.9-1.1-1.1 7.9z" style="fill:#5d6f6d;opacity:0.8"/><path d="M3.7 3.7l7.9 1.1 1.1 7.9-7.9-1.1z" style="fill:#8cd592;opacity:0.8"/><path d="M21.7 21.7l-7.9-1.1-1.1-7.9 7.9 1.1z" style="fill:#665e74;opacity:0.8"/><path d="M12.7 25.4l-4.8-6.4 4.8-6.3 4.8 6.4z" style="fill:#3c3647;opacity:0.8"/><path d="M25.4 12.7l-6.3 4.8-6.4-4.8 6.4-4.8z" style="fill:#837193;opacity:0.8"/><path d="M12.7 0l4.8 6.4-4.8 6.4-4.8-6.4z" style="fill:#a2f4ac;opacity:0.8"/><path d="M0 12.7l6.4-4.8 6.4 4.8-6.4 4.8z" style="fill:#7ea685;opacity:0.8"/><path d="M12.7 9.7l3 3-3 3-3-3z" fill="#3c3647"/></svg>